<svg t="1735831342357" class="icon" viewBox="0 0 1024 1024" version="1.1" xmlns="http://www.w3.org/2000/svg" p-id="7049" width="200" height="200"><path d="M902.485333 542.976h33.416534v33.416533h-33.416534zM902.485333 576.401067h33.416534v31.752533h-33.416534zM870.7328 511.232h31.752533v31.752533h-31.752533z" fill="#EF001E" p-id="7050"></path><path d="M870.7328 542.976h31.752533v33.416533h-31.752533zM870.7328 576.401067h31.752533v31.752533h-31.752533z" fill="#FFF300" p-id="7051"></path><path d="M870.7328 608.145067h31.752533v33.416533h-31.752533z" fill="#EF001E" p-id="7052"></path><path d="M837.316267 380.893867h33.416533v31.752533h-33.416533z" fill="#140700" p-id="7053"></path><path d="M837.316267 412.637867h33.416533v33.416533h-33.416533z" fill="#140700" p-id="7054"></path><path d="M837.316267 477.806933h33.416533v33.416534h-33.416533zM837.316267 511.232h33.416533v31.752533h-33.416533z" fill="#EF001E" p-id="7055"></path><path d="M837.316267 542.976h33.416533v33.416533h-33.416533zM837.316267 576.401067h33.416533v31.752533h-33.416533z" fill="#FFF300" p-id="7056"></path><path d="M837.316267 608.145067h33.416533v33.416533h-33.416533zM837.316267 641.5616h33.416533v31.752533h-33.416533z" fill="#EF001E" p-id="7057"></path><path d="M805.563733 380.893867h31.752534v31.752533h-31.752534z" fill="#140700" p-id="7058"></path><path d="M805.563733 412.637867h31.752534v33.416533h-31.752534z" fill="#140700" p-id="7059"></path><path d="M805.563733 446.062933h31.752534v31.752534h-31.752534z" fill="#EF001E" p-id="7060"></path><path d="M805.563733 477.806933h31.752534v33.416534h-31.752534zM805.563733 511.232h31.752534v31.752533h-31.752534z" fill="#FFF300" p-id="7061"></path><path d="M805.563733 542.976h31.752534v33.416533h-31.752534zM805.563733 576.401067h31.752534v31.752533h-31.752534z" fill="#FFF300" p-id="7062"></path><path d="M805.563733 608.145067h31.752534v33.416533h-31.752534z" fill="#EF001E" p-id="7063"></path><path d="M772.1472 412.637867h33.416533v33.416533h-33.416533zM772.1472 446.062933h33.416533v31.752534h-33.416533z" fill="#140700" p-id="7064"></path><path d="M772.1472 477.806933h33.416533v33.416534h-33.416533zM772.1472 511.232h33.416533v31.752533h-33.416533z" fill="#FFF300" p-id="7065"></path><path d="M772.1472 542.976h33.416533v33.416533h-33.416533zM772.1472 576.401067h33.416533v31.752533h-33.416533z" fill="#FFF300" p-id="7066"></path><path d="M740.4032 446.062933h31.752533v31.752534h-31.752533z" fill="#140700" p-id="7067"></path><path d="M740.4032 477.806933h31.752533v33.416534h-31.752533z" fill="#140700" p-id="7068"></path><path d="M740.4032 511.232h31.752533v31.752533h-31.752533z" fill="#EF001E" p-id="7069"></path><path d="M740.4032 542.976h31.752533v33.416533h-31.752533z" fill="#EF001E" p-id="7070"></path><path d="M706.978133 477.806933h33.416534v33.416534h-33.416534zM706.978133 511.232h33.416534v31.752533h-33.416534z" fill="#140700" p-id="7071"></path><path d="M675.234133 511.232h31.752534v31.752533h-31.752534z" fill="#140700" p-id="7072"></path><path d="M675.234133 542.976h31.752534v33.416533h-31.752534zM641.809067 542.976h33.416533v33.416533h-33.416533zM641.809067 576.401067h33.416533v31.752533h-33.416533z" fill="#140700" p-id="7073"></path><path d="M610.065067 576.401067h31.752533v31.752533h-31.752533z" fill="#140700" p-id="7074"></path><path d="M610.065067 608.145067h31.752533v33.416533h-31.752533zM610.065067 641.5616h31.752533v31.752533h-31.752533z" fill="#140700" p-id="7075"></path><path d="M610.065067 673.314133h31.752533v33.416534h-31.752533zM576.64 282.308267h33.416533v33.416533h-33.416533zM576.64 315.7248h33.416533v31.752533h-33.416533zM576.64 347.477333h33.416533v33.416534h-33.416533zM576.64 380.893867h33.416533v31.752533h-33.416533zM576.64 608.145067h33.416533v33.416533h-33.416533z" fill="#140700" p-id="7076"></path><path d="M576.64 641.5616h33.416533v31.752533h-33.416533z" fill="#EF001E" p-id="7077"></path><path d="M576.64 673.314133h33.416533v33.416534h-33.416533z" fill="#EF001E" p-id="7078"></path><path d="M576.64 706.730667h33.416533v33.416533h-33.416533zM544.896 185.386667h31.752533v31.752533h-31.752533zM544.896 217.1392h31.752533v33.416533h-31.752533zM544.896 250.555733h31.752533v31.752534h-31.752533z" fill="#140700" p-id="7079"></path><path d="M544.896 282.308267h31.752533v33.416533h-31.752533zM544.896 315.7248h31.752533v31.752533h-31.752533zM544.896 347.477333h31.752533v33.416534h-31.752533zM544.896 380.893867h31.752533v31.752533h-31.752533z" fill="#EF001E" p-id="7080"></path><path d="M544.896 412.637867h31.752533v33.416533h-31.752533zM544.896 446.062933h31.752533v31.752534h-31.752533zM544.896 576.401067h31.752533v31.752533h-31.752533z" fill="#140700" p-id="7081"></path><path d="M544.896 608.145067h31.752533v33.416533h-31.752533z" fill="#EEE98B" p-id="7082"></path><path d="M544.896 641.5616h31.752533v31.752533h-31.752533z" fill="#EF001E" p-id="7083"></path><path d="M544.896 673.314133h31.752533v33.416534h-31.752533z" fill="#EF001E" p-id="7084"></path><path d="M544.896 706.730667h31.752533v33.416533h-31.752533zM544.896 805.3248h31.752533v31.752533h-31.752533z" fill="#140700" p-id="7085"></path><path d="M544.896 837.0688h31.752533v33.416533h-31.752533zM544.896 870.485333h31.752533v31.752534h-31.752533zM511.479467 151.970133h33.416533v33.416534h-33.416533z" fill="#140700" p-id="7086"></path><path d="M511.479467 185.386667h33.416533v31.752533h-33.416533zM511.479467 217.1392h33.416533v33.416533h-33.416533zM511.479467 250.555733h33.416533v31.752534h-33.416533z" fill="#EF001E" p-id="7087"></path><path d="M511.479467 282.308267h33.416533v33.416533h-33.416533zM511.479467 315.7248h33.416533v31.752533h-33.416533z" fill="#140700" p-id="7088"></path><path d="M511.479467 347.477333h33.416533v33.416534h-33.416533zM511.479467 380.893867h33.416533v31.752533h-33.416533z" fill="#EEE98B" p-id="7089"></path><path d="M511.479467 412.637867h33.416533v33.416533h-33.416533zM511.479467 446.062933h33.416533v31.752534h-33.416533z" fill="#EF001E" p-id="7090"></path><path d="M511.479467 477.806933h33.416533v33.416534h-33.416533zM511.479467 542.976h33.416533v33.416533h-33.416533z" fill="#140700" p-id="7091"></path><path d="M511.479467 576.401067h33.416533v31.752533h-33.416533z" fill="#EF001E" p-id="7092"></path><path d="M511.479467 608.145067h33.416533v33.416533h-33.416533zM511.479467 641.5616h33.416533v31.752533h-33.416533z" fill="#EEE98B" p-id="7093"></path><path d="M511.479467 673.314133h33.416533v33.416534h-33.416533zM511.479467 740.155733h33.416533v31.752534h-33.416533z" fill="#140700" p-id="7094"></path><path d="M511.479467 771.899733h33.416533v33.416534h-33.416533zM511.479467 805.3248h33.416533v31.752533h-33.416533z" fill="#140700" p-id="7095"></path><path d="M511.479467 837.0688h33.416533v33.416533h-33.416533z" fill="#EF001E" p-id="7096"></path><path d="M511.479467 870.485333h33.416533v31.752534h-33.416533zM479.726933 120.2176h31.752534v31.752533h-31.752534z" fill="#140700" p-id="7097"></path><path d="M479.726933 151.970133h31.752534v33.416534h-31.752534z" fill="#EF001E" p-id="7098"></path><path d="M479.726933 185.386667h31.752534v31.752533h-31.752534zM479.726933 217.1392h31.752534v33.416533h-31.752534zM479.726933 250.555733h31.752534v31.752534h-31.752534zM479.726933 282.308267h31.752534v33.416533h-31.752534z" fill="#EEE98B" p-id="7099"></path><path d="M479.726933 315.7248h31.752534v31.752533h-31.752534z" fill="#140700" p-id="7100"></path><path d="M479.726933 347.477333h31.752534v33.416534h-31.752534z" fill="#FFFFFF" p-id="7101"></path><path d="M479.726933 380.893867h31.752534v31.752533h-31.752534z" fill="#EEE98B" p-id="7102"></path><path d="M479.726933 412.637867h31.752534v33.416533h-31.752534zM479.726933 446.062933h31.752534v31.752534h-31.752534z" fill="#EEE98B" p-id="7103"></path><path d="M479.726933 477.806933h31.752534v33.416534h-31.752534z" fill="#EF001E" p-id="7104"></path><path d="M479.726933 511.232h31.752534v31.752533h-31.752534z" fill="#140700" p-id="7105"></path><path d="M479.726933 542.976h31.752534v33.416533h-31.752534z" fill="#EF001E" p-id="7106"></path><path d="M479.726933 576.401067h31.752534v31.752533h-31.752534z" fill="#140700" p-id="7107"></path><path d="M479.726933 608.145067h31.752534v33.416533h-31.752534zM479.726933 641.5616h31.752534v31.752533h-31.752534z" fill="#140700" p-id="7108"></path><path d="M479.726933 673.314133h31.752534v33.416534h-31.752534zM479.726933 706.730667h31.752534v33.416533h-31.752534z" fill="#140700" p-id="7109"></path><path d="M479.726933 740.155733h31.752534v31.752534h-31.752534z" fill="#EEE98B" p-id="7110"></path><path d="M479.726933 771.899733h31.752534v33.416534h-31.752534zM479.726933 805.3248h31.752534v31.752533h-31.752534z" fill="#EF001E" p-id="7111"></path><path d="M479.726933 837.0688h31.752534v33.416533h-31.752534z" fill="#EF001E" p-id="7112"></path><path d="M479.726933 870.485333h31.752534v31.752534h-31.752534zM446.3104 120.2176h33.416533v31.752533h-33.416533z" fill="#140700" p-id="7113"></path><path d="M446.3104 151.970133h33.416533v33.416534h-33.416533z" fill="#EF001E" p-id="7114"></path><path d="M446.3104 185.386667h33.416533v31.752533h-33.416533zM446.3104 217.1392h33.416533v33.416533h-33.416533zM446.3104 250.555733h33.416533v31.752534h-33.416533zM446.3104 282.308267h33.416533v33.416533h-33.416533z" fill="#EEE98B" p-id="7115"></path><path d="M446.3104 315.7248h33.416533v31.752533h-33.416533z" fill="#140700" p-id="7116"></path><path d="M446.3104 347.477333h33.416533v33.416534h-33.416533z" fill="#FFFFFF" p-id="7117"></path><path d="M446.3104 380.893867h33.416533v31.752533h-33.416533z" fill="#EEE98B" p-id="7118"></path><path d="M446.3104 412.637867h33.416533v33.416533h-33.416533zM446.3104 446.062933h33.416533v31.752534h-33.416533z" fill="#EEE98B" p-id="7119"></path><path d="M446.3104 477.806933h33.416533v33.416534h-33.416533z" fill="#EEE98B" p-id="7120"></path><path d="M446.3104 511.232h33.416533v31.752533h-33.416533z" fill="#140700" p-id="7121"></path><path d="M446.3104 542.976h33.416533v33.416533h-33.416533z" fill="#140700" p-id="7122"></path><path d="M446.3104 576.401067h33.416533v31.752533h-33.416533z" fill="#EF001E" p-id="7123"></path><path d="M446.3104 608.145067h33.416533v33.416533h-33.416533zM446.3104 641.5616h33.416533v31.752533h-33.416533z" fill="#EF001E" p-id="7124"></path><path d="M446.3104 673.314133h33.416533v33.416534h-33.416533zM446.3104 706.730667h33.416533v33.416533h-33.416533z" fill="#EF001E" p-id="7125"></path><path d="M446.3104 740.155733h33.416533v31.752534h-33.416533z" fill="#EEE98B" p-id="7126"></path><path d="M446.3104 771.899733h33.416533v33.416534h-33.416533z" fill="#EEE98B" p-id="7127"></path><path d="M446.3104 805.3248h33.416533v31.752533h-33.416533z" fill="#EF001E" p-id="7128"></path><path d="M446.3104 837.0688h33.416533v33.416533h-33.416533z" fill="#EF001E" p-id="7129"></path><path d="M446.3104 870.485333h33.416533v31.752534h-33.416533zM414.557867 120.2176h31.752533v31.752533h-31.752533z" fill="#140700" p-id="7130"></path><path d="M414.557867 151.970133h31.752533v33.416534h-31.752533zM414.557867 185.386667h31.752533v31.752533h-31.752533zM414.557867 217.1392h31.752533v33.416533h-31.752533z" fill="#EF001E" p-id="7131"></path><path d="M414.557867 250.555733h31.752533v31.752534h-31.752533zM414.557867 282.308267h31.752533v33.416533h-31.752533z" fill="#EEE98B" p-id="7132"></path><path d="M414.557867 315.7248h31.752533v31.752533h-31.752533z" fill="#140700" p-id="7133"></path><path d="M414.557867 347.477333h31.752533v33.416534h-31.752533z" fill="#FFFFFF" p-id="7134"></path><path d="M414.557867 380.893867h31.752533v31.752533h-31.752533z" fill="#EEE98B" p-id="7135"></path><path d="M414.557867 412.637867h31.752533v33.416533h-31.752533zM414.557867 446.062933h31.752533v31.752534h-31.752533z" fill="#EEE98B" p-id="7136"></path><path d="M414.557867 477.806933h31.752533v33.416534h-31.752533z" fill="#140700" p-id="7137"></path><path d="M414.557867 511.232h31.752533v31.752533h-31.752533z" fill="#E5DF90" p-id="7138"></path><path d="M414.557867 542.976h31.752533v33.416533h-31.752533z" fill="#EF001E" p-id="7139"></path><path d="M414.557867 576.401067h31.752533v31.752533h-31.752533z" fill="#140700" p-id="7140"></path><path d="M414.557867 608.145067h31.752533v33.416533h-31.752533z" fill="#140700" p-id="7141"></path><path d="M414.557867 641.5616h31.752533v31.752533h-31.752533z" fill="#EF001E" p-id="7142"></path><path d="M414.557867 673.314133h31.752533v33.416534h-31.752533zM414.557867 706.730667h31.752533v33.416533h-31.752533zM414.557867 740.155733h31.752533v31.752534h-31.752533z" fill="#EF001E" p-id="7143"></path><path d="M414.557867 771.899733h31.752533v33.416534h-31.752533z" fill="#EEE98B" p-id="7144"></path><path d="M414.557867 805.3248h31.752533v31.752533h-31.752533z" fill="#140700" p-id="7145"></path><path d="M414.557867 837.0688h31.752533v33.416533h-31.752533zM414.557867 870.485333h31.752533v31.752534h-31.752533zM381.141333 86.801067h33.416534v33.416533h-33.416534z" fill="#140700" p-id="7146"></path><path d="M381.141333 120.2176h33.416534v31.752533h-33.416534zM381.141333 151.970133h33.416534v33.416534h-33.416534zM381.141333 185.386667h33.416534v31.752533h-33.416534zM381.141333 217.1392h33.416534v33.416533h-33.416534zM381.141333 250.555733h33.416534v31.752534h-33.416534z" fill="#EF001E" p-id="7147"></path><path d="M381.141333 282.308267h33.416534v33.416533h-33.416534z" fill="#EEE98B" p-id="7148"></path><path d="M381.141333 315.7248h33.416534v31.752533h-33.416534zM381.141333 347.477333h33.416534v33.416534h-33.416534z" fill="#140700" p-id="7149"></path><path d="M381.141333 380.893867h33.416534v31.752533h-33.416534z" fill="#EEE98B" p-id="7150"></path><path d="M381.141333 412.637867h33.416534v33.416533h-33.416534zM381.141333 446.062933h33.416534v31.752534h-33.416534z" fill="#EEE98B" p-id="7151"></path><path d="M381.141333 477.806933h33.416534v33.416534h-33.416534z" fill="#140700" p-id="7152"></path><path d="M381.141333 511.232h33.416534v31.752533h-33.416534z" fill="#E5DF90" p-id="7153"></path><path d="M381.141333 542.976h33.416534v33.416533h-33.416534z" fill="#EF001E" p-id="7154"></path><path d="M381.141333 576.401067h33.416534v31.752533h-33.416534z" fill="#140700" p-id="7155"></path><path d="M381.141333 608.145067h33.416534v33.416533h-33.416534z" fill="#FFFFFF" p-id="7156"></path><path d="M381.141333 641.5616h33.416534v31.752533h-33.416534z" fill="#140700" p-id="7157"></path><path d="M381.141333 673.314133h33.416534v33.416534h-33.416534zM381.141333 706.730667h33.416534v33.416533h-33.416534zM381.141333 740.155733h33.416534v31.752534h-33.416534z" fill="#EF001E" p-id="7158"></path><path d="M381.141333 771.899733h33.416534v33.416534h-33.416534zM349.3888 86.801067h31.752533v33.416533h-31.752533z" fill="#140700" p-id="7159"></path><path d="M349.3888 120.2176h31.752533v31.752533h-31.752533zM349.3888 151.970133h31.752533v33.416534h-31.752533zM349.3888 185.386667h31.752533v31.752533h-31.752533zM349.3888 217.1392h31.752533v33.416533h-31.752533zM349.3888 250.555733h31.752533v31.752534h-31.752533z" fill="#EF001E" p-id="7160"></path><path d="M349.3888 282.308267h31.752533v33.416533h-31.752533z" fill="#EEE98B" p-id="7161"></path><path d="M349.3888 315.7248h31.752533v31.752533h-31.752533zM349.3888 347.477333h31.752533v33.416534h-31.752533z" fill="#140700" p-id="7162"></path><path d="M349.3888 380.893867h31.752533v31.752533h-31.752533z" fill="#EEE98B" p-id="7163"></path><path d="M349.3888 412.637867h31.752533v33.416533h-31.752533zM349.3888 446.062933h31.752533v31.752534h-31.752533z" fill="#EEE98B" p-id="7164"></path><path d="M349.3888 477.806933h31.752533v33.416534h-31.752533z" fill="#140700" p-id="7165"></path><path d="M349.3888 511.232h31.752533v31.752533h-31.752533z" fill="#E5DF90" p-id="7166"></path><path d="M349.3888 542.976h31.752533v33.416533h-31.752533z" fill="#EF001E" p-id="7167"></path><path d="M349.3888 576.401067h31.752533v31.752533h-31.752533z" fill="#140700" p-id="7168"></path><path d="M349.3888 608.145067h31.752533v33.416533h-31.752533zM349.3888 641.5616h31.752533v31.752533h-31.752533z" fill="#FFFFFF" p-id="7169"></path><path d="M349.3888 673.314133h31.752533v33.416534h-31.752533z" fill="#140700" p-id="7170"></path><path d="M349.3888 706.730667h31.752533v33.416533h-31.752533zM349.3888 740.155733h31.752533v31.752534h-31.752533z" fill="#EF001E" p-id="7171"></path><path d="M349.3888 771.899733h31.752533v33.416534h-31.752533zM315.972267 86.801067h33.416533v33.416533h-33.416533z" fill="#140700" p-id="7172"></path><path d="M315.972267 120.2176h33.416533v31.752533h-33.416533zM315.972267 151.970133h33.416533v33.416534h-33.416533zM315.972267 185.386667h33.416533v31.752533h-33.416533zM315.972267 217.1392h33.416533v33.416533h-33.416533zM315.972267 250.555733h33.416533v31.752534h-33.416533z" fill="#EF001E" p-id="7173"></path><path d="M315.972267 282.308267h33.416533v33.416533h-33.416533z" fill="#EEE98B" p-id="7174"></path><path d="M315.972267 315.7248h33.416533v31.752533h-33.416533zM315.972267 347.477333h33.416533v33.416534h-33.416533z" fill="#140700" p-id="7175"></path><path d="M315.972267 380.893867h33.416533v31.752533h-33.416533z" fill="#EEE98B" p-id="7176"></path><path d="M315.972267 412.637867h33.416533v33.416533h-33.416533zM315.972267 446.062933h33.416533v31.752534h-33.416533z" fill="#EEE98B" p-id="7177"></path><path d="M315.972267 477.806933h33.416533v33.416534h-33.416533z" fill="#140700" p-id="7178"></path><path d="M315.972267 511.232h33.416533v31.752533h-33.416533z" fill="#E5DF90" p-id="7179"></path><path d="M315.972267 542.976h33.416533v33.416533h-33.416533z" fill="#EF001E" p-id="7180"></path><path d="M315.972267 576.401067h33.416533v31.752533h-33.416533z" fill="#140700" p-id="7181"></path><path d="M315.972267 608.145067h33.416533v33.416533h-33.416533z" fill="#FFFFFF" p-id="7182"></path><path d="M315.972267 641.5616h33.416533v31.752533h-33.416533z" fill="#140700" p-id="7183"></path><path d="M315.972267 673.314133h33.416533v33.416534h-33.416533zM315.972267 706.730667h33.416533v33.416533h-33.416533zM315.972267 740.155733h33.416533v31.752534h-33.416533z" fill="#EF001E" p-id="7184"></path><path d="M315.972267 771.899733h33.416533v33.416534h-33.416533zM284.219733 120.2176h31.752534v31.752533h-31.752534z" fill="#140700" p-id="7185"></path><path d="M284.219733 151.970133h31.752534v33.416534h-31.752534zM284.219733 185.386667h31.752534v31.752533h-31.752534zM284.219733 217.1392h31.752534v33.416533h-31.752534z" fill="#EF001E" p-id="7186"></path><path d="M284.219733 250.555733h31.752534v31.752534h-31.752534zM284.219733 282.308267h31.752534v33.416533h-31.752534z" fill="#EEE98B" p-id="7187"></path><path d="M284.219733 315.7248h31.752534v31.752533h-31.752534z" fill="#140700" p-id="7188"></path><path d="M284.219733 347.477333h31.752534v33.416534h-31.752534z" fill="#FFFFFF" p-id="7189"></path><path d="M284.219733 380.893867h31.752534v31.752533h-31.752534z" fill="#EEE98B" p-id="7190"></path><path d="M284.219733 412.637867h31.752534v33.416533h-31.752534zM284.219733 446.062933h31.752534v31.752534h-31.752534z" fill="#EEE98B" p-id="7191"></path><path d="M284.219733 477.806933h31.752534v33.416534h-31.752534z" fill="#140700" p-id="7192"></path><path d="M284.219733 511.232h31.752534v31.752533h-31.752534z" fill="#E5DF90" p-id="7193"></path><path d="M284.219733 542.976h31.752534v33.416533h-31.752534z" fill="#EF001E" p-id="7194"></path><path d="M284.219733 576.401067h31.752534v31.752533h-31.752534z" fill="#140700" p-id="7195"></path><path d="M284.219733 608.145067h31.752534v33.416533h-31.752534z" fill="#140700" p-id="7196"></path><path d="M284.219733 641.5616h31.752534v31.752533h-31.752534z" fill="#EF001E" p-id="7197"></path><path d="M284.219733 673.314133h31.752534v33.416534h-31.752534zM284.219733 706.730667h31.752534v33.416533h-31.752534zM284.219733 740.155733h31.752534v31.752534h-31.752534z" fill="#EF001E" p-id="7198"></path><path d="M284.219733 771.899733h31.752534v33.416534h-31.752534z" fill="#EEE98B" p-id="7199"></path><path d="M284.219733 805.3248h31.752534v31.752533h-31.752534z" fill="#140700" p-id="7200"></path><path d="M284.219733 837.0688h31.752534v33.416533h-31.752534zM284.219733 870.485333h31.752534v31.752534h-31.752534zM250.8032 120.2176h33.416533v31.752533h-33.416533z" fill="#140700" p-id="7201"></path><path d="M250.8032 151.970133h33.416533v33.416534h-33.416533z" fill="#EF001E" p-id="7202"></path><path d="M250.8032 185.386667h33.416533v31.752533h-33.416533zM250.8032 217.1392h33.416533v33.416533h-33.416533zM250.8032 250.555733h33.416533v31.752534h-33.416533zM250.8032 282.308267h33.416533v33.416533h-33.416533z" fill="#EEE98B" p-id="7203"></path><path d="M250.8032 315.7248h33.416533v31.752533h-33.416533z" fill="#140700" p-id="7204"></path><path d="M250.8032 347.477333h33.416533v33.416534h-33.416533z" fill="#FFFFFF" p-id="7205"></path><path d="M250.8032 380.893867h33.416533v31.752533h-33.416533z" fill="#EEE98B" p-id="7206"></path><path d="M250.8032 412.637867h33.416533v33.416533h-33.416533zM250.8032 446.062933h33.416533v31.752534h-33.416533z" fill="#EEE98B" p-id="7207"></path><path d="M250.8032 477.806933h33.416533v33.416534h-33.416533z" fill="#EEE98B" p-id="7208"></path><path d="M250.8032 511.232h33.416533v31.752533h-33.416533z" fill="#140700" p-id="7209"></path><path d="M250.8032 542.976h33.416533v33.416533h-33.416533z" fill="#140700" p-id="7210"></path><path d="M250.8032 576.401067h33.416533v31.752533h-33.416533z" fill="#EF001E" p-id="7211"></path><path d="M250.8032 608.145067h33.416533v33.416533h-33.416533zM250.8032 641.5616h33.416533v31.752533h-33.416533z" fill="#EF001E" p-id="7212"></path><path d="M250.8032 673.314133h33.416533v33.416534h-33.416533zM250.8032 706.730667h33.416533v33.416533h-33.416533z" fill="#EF001E" p-id="7213"></path><path d="M250.8032 740.155733h33.416533v31.752534h-33.416533z" fill="#EEE98B" p-id="7214"></path><path d="M250.8032 771.899733h33.416533v33.416534h-33.416533z" fill="#EEE98B" p-id="7215"></path><path d="M250.8032 805.3248h33.416533v31.752533h-33.416533z" fill="#EF001E" p-id="7216"></path><path d="M250.8032 837.0688h33.416533v33.416533h-33.416533z" fill="#EF001E" p-id="7217"></path><path d="M250.8032 870.485333h33.416533v31.752534h-33.416533zM219.050667 120.2176h31.752533v31.752533H219.050667z" fill="#140700" p-id="7218"></path><path d="M219.050667 151.970133h31.752533v33.416534H219.050667z" fill="#EF001E" p-id="7219"></path><path d="M219.050667 185.386667h31.752533v31.752533H219.050667zM219.050667 217.1392h31.752533v33.416533H219.050667zM219.050667 250.555733h31.752533v31.752534H219.050667zM219.050667 282.308267h31.752533v33.416533H219.050667z" fill="#EEE98B" p-id="7220"></path><path d="M219.050667 315.7248h31.752533v31.752533H219.050667z" fill="#140700" p-id="7221"></path><path d="M219.050667 347.477333h31.752533v33.416534H219.050667z" fill="#FFFFFF" p-id="7222"></path><path d="M219.050667 380.893867h31.752533v31.752533H219.050667z" fill="#EEE98B" p-id="7223"></path><path d="M219.050667 412.637867h31.752533v33.416533H219.050667zM219.050667 446.062933h31.752533v31.752534H219.050667z" fill="#EEE98B" p-id="7224"></path><path d="M219.050667 477.806933h31.752533v33.416534H219.050667z" fill="#EF001E" p-id="7225"></path><path d="M219.050667 511.232h31.752533v31.752533H219.050667z" fill="#140700" p-id="7226"></path><path d="M219.050667 542.976h31.752533v33.416533H219.050667z" fill="#EF001E" p-id="7227"></path><path d="M219.050667 576.401067h31.752533v31.752533H219.050667z" fill="#140700" p-id="7228"></path><path d="M219.050667 608.145067h31.752533v33.416533H219.050667zM219.050667 641.5616h31.752533v31.752533H219.050667z" fill="#140700" p-id="7229"></path><path d="M219.050667 673.314133h31.752533v33.416534H219.050667zM219.050667 706.730667h31.752533v33.416533H219.050667z" fill="#140700" p-id="7230"></path><path d="M219.050667 740.155733h31.752533v31.752534H219.050667z" fill="#EEE98B" p-id="7231"></path><path d="M219.050667 771.899733h31.752533v33.416534H219.050667zM219.050667 805.3248h31.752533v31.752533H219.050667z" fill="#EF001E" p-id="7232"></path><path d="M219.050667 837.0688h31.752533v33.416533H219.050667z" fill="#EF001E" p-id="7233"></path><path d="M219.050667 870.485333h31.752533v31.752534H219.050667zM185.634133 151.970133h33.416534v33.416534h-33.416534z" fill="#140700" p-id="7234"></path><path d="M185.634133 185.386667h33.416534v31.752533h-33.416534zM185.634133 217.1392h33.416534v33.416533h-33.416534zM185.634133 250.555733h33.416534v31.752534h-33.416534z" fill="#EF001E" p-id="7235"></path><path d="M185.634133 282.308267h33.416534v33.416533h-33.416534zM185.634133 315.7248h33.416534v31.752533h-33.416534z" fill="#140700" p-id="7236"></path><path d="M185.634133 347.477333h33.416534v33.416534h-33.416534zM185.634133 380.893867h33.416534v31.752533h-33.416534z" fill="#EEE98B" p-id="7237"></path><path d="M185.634133 412.637867h33.416534v33.416533h-33.416534zM185.634133 446.062933h33.416534v31.752534h-33.416534z" fill="#EF001E" p-id="7238"></path><path d="M185.634133 477.806933h33.416534v33.416534h-33.416534zM185.634133 542.976h33.416534v33.416533h-33.416534z" fill="#140700" p-id="7239"></path><path d="M185.634133 576.401067h33.416534v31.752533h-33.416534z" fill="#EF001E" p-id="7240"></path><path d="M185.634133 608.145067h33.416534v33.416533h-33.416534zM185.634133 641.5616h33.416534v31.752533h-33.416534z" fill="#EEE98B" p-id="7241"></path><path d="M185.634133 673.314133h33.416534v33.416534h-33.416534zM185.634133 740.155733h33.416534v31.752534h-33.416534z" fill="#140700" p-id="7242"></path><path d="M185.634133 771.899733h33.416534v33.416534h-33.416534zM185.634133 805.3248h33.416534v31.752533h-33.416534z" fill="#140700" p-id="7243"></path><path d="M185.634133 837.0688h33.416534v33.416533h-33.416534z" fill="#EF001E" p-id="7244"></path><path d="M185.634133 870.485333h33.416534v31.752534h-33.416534zM153.890133 185.386667h31.752534v31.752533h-31.752534zM153.890133 217.1392h31.752534v33.416533h-31.752534zM153.890133 250.555733h31.752534v31.752534h-31.752534z" fill="#140700" p-id="7245"></path><path d="M153.890133 282.308267h31.752534v33.416533h-31.752534zM153.890133 315.7248h31.752534v31.752533h-31.752534zM153.890133 347.477333h31.752534v33.416534h-31.752534zM153.890133 380.893867h31.752534v31.752533h-31.752534z" fill="#EF001E" p-id="7246"></path><path d="M153.890133 412.637867h31.752534v33.416533h-31.752534zM153.890133 446.062933h31.752534v31.752534h-31.752534zM153.890133 576.401067h31.752534v31.752533h-31.752534z" fill="#140700" p-id="7247"></path><path d="M153.890133 608.145067h31.752534v33.416533h-31.752534z" fill="#EEE98B" p-id="7248"></path><path d="M153.890133 641.5616h31.752534v31.752533h-31.752534z" fill="#EF001E" p-id="7249"></path><path d="M153.890133 673.314133h31.752534v33.416534h-31.752534z" fill="#EF001E" p-id="7250"></path><path d="M153.890133 706.730667h31.752534v33.416533h-31.752534zM153.890133 805.3248h31.752534v31.752533h-31.752534z" fill="#140700" p-id="7251"></path><path d="M153.890133 837.0688h31.752534v33.416533h-31.752534zM153.890133 870.485333h31.752534v31.752534h-31.752534zM120.465067 282.308267h33.416533v33.416533h-33.416533zM120.465067 315.7248h33.416533v31.752533h-33.416533zM120.465067 347.477333h33.416533v33.416534h-33.416533zM120.465067 380.893867h33.416533v31.752533h-33.416533zM120.465067 608.145067h33.416533v33.416533h-33.416533z" fill="#140700" p-id="7252"></path><path d="M120.465067 641.5616h33.416533v31.752533h-33.416533z" fill="#EF001E" p-id="7253"></path><path d="M120.465067 673.314133h33.416533v33.416534h-33.416533z" fill="#EF001E" p-id="7254"></path><path d="M120.465067 706.730667h33.416533v33.416533h-33.416533zM88.721067 641.5616h31.752533v31.752533h-31.752533z" fill="#140700" p-id="7255"></path><path d="M88.721067 673.314133h31.752533v33.416534h-31.752533z" fill="#140700" p-id="7256"></path></svg>